<svg width="50" height="50" viewBox="0 0 50 50" fill="none" xmlns="http://www.w3.org/2000/svg">
<rect width="50" height="50" rx="20" fill="#D9D9D9"/>
<path d="M15.9297 36.8438H35.0703C35.1777 36.8438 35.2656 36.7277 35.2656 36.5859V34.5234C35.2656 34.3816 35.1777 34.2656 35.0703 34.2656H15.9297C15.8223 34.2656 15.7344 34.3816 15.7344 34.5234V36.5859C15.7344 36.7277 15.8223 36.8438 15.9297 36.8438ZM15.9297 16.7344H35.0703C35.1777 16.7344 35.2656 16.6184 35.2656 16.4766V14.4141C35.2656 14.2723 35.1777 14.1562 35.0703 14.1562H15.9297C15.8223 14.1562 15.7344 14.2723 15.7344 14.4141V16.4766C15.7344 16.6184 15.8223 16.7344 15.9297 16.7344ZM15.9297 26.7891H35.0703C35.1777 26.7891 35.2656 26.673 35.2656 26.5312V24.4688C35.2656 24.327 35.1777 24.2109 35.0703 24.2109H15.9297C15.8223 24.2109 15.7344 24.327 15.7344 24.4688V26.5312C15.7344 26.673 15.8223 26.7891 15.9297 26.7891Z" fill="#1A1A1A"/>
</svg>
