<svg width="25" height="25" viewBox="0 0 25 25" fill="none" xmlns="http://www.w3.org/2000/svg">
<path d="M2.29004 22.0303V14.4121C2.29004 14.2343 2.42451 14.0854 2.60227 14.0686L17.1531 12.6225C17.302 12.608 17.302 12.3919 17.1531 12.3774L2.60227 10.9312C2.42451 10.9144 2.29004 10.7655 2.29004 10.5877V2.96954C2.29004 2.71491 2.55669 2.54668 2.78501 2.65959L22.513 12.1899C22.7724 12.3148 22.7724 12.6871 22.513 12.812L2.78745 22.3423C2.55685 22.4529 2.29019 22.2847 2.29019 22.0301L2.29004 22.0303Z" fill="black"/>
<path d="M2.53028 22.0303V20.5V17.3506V14.7921V14.4966C2.53028 14.4486 2.52074 14.3862 2.54954 14.3477C2.56403 14.3284 2.58082 14.3236 2.59989 14.3091C2.60466 14.3044 2.68153 14.2946 2.60237 14.3067H2.60962C2.62163 14.3042 2.63117 14.3042 2.64319 14.3042C2.69602 14.2994 2.74657 14.2946 2.7994 14.2897C3.32791 14.2368 3.85643 14.184 4.38499 14.1312C5.28582 14.0423 6.18665 13.9509 7.08773 13.8621C8.15682 13.7564 9.22816 13.6507 10.2972 13.5426C11.3422 13.4392 12.3873 13.336 13.4323 13.2303C14.2563 13.1487 15.078 13.0671 15.9019 12.9852C16.3055 12.9444 16.7116 12.9059 17.1152 12.8651C17.2186 12.8556 17.3195 12.8363 17.3987 12.7594C17.5524 12.608 17.5381 12.3438 17.3674 12.2116C17.3 12.1613 17.2304 12.1443 17.1488 12.1347C17.0454 12.1227 16.9422 12.1155 16.8413 12.1035C16.2552 12.0459 15.6691 11.9858 15.0827 11.9282C14.1481 11.8345 13.2137 11.7432 12.2816 11.6495C11.203 11.5414 10.1267 11.4357 9.04806 11.3276C8.01979 11.2267 6.99406 11.1233 5.96578 11.0224C5.18263 10.9455 4.39948 10.8662 3.61862 10.7893C3.28464 10.7557 2.94591 10.7365 2.61442 10.6884H2.60965C2.6457 10.6932 2.64322 10.7052 2.60717 10.6859C2.57837 10.6691 2.55434 10.6524 2.54232 10.6186C2.53507 10.5993 2.53984 10.585 2.53755 10.5658C2.53507 10.5009 2.53755 10.4336 2.53755 10.3687V9.43183V6.39286V3.60853C2.53755 3.40426 2.53507 3.19769 2.53755 2.99359C2.54003 2.87114 2.6024 2.83509 2.71284 2.88316C2.9915 3.00561 3.26537 3.1498 3.5393 3.28199C4.11113 3.55817 4.68046 3.83453 5.25209 4.11075C6.04252 4.49279 6.8329 4.87466 7.62329 5.25669C8.54814 5.70358 9.47304 6.1503 10.3981 6.59717C11.3806 7.07287 12.3632 7.5461 13.3457 8.02178C14.3091 8.48775 15.2748 8.95391 16.2382 9.41988C17.0982 9.83549 17.9559 10.2511 18.816 10.6642C19.4957 10.9934 20.1732 11.32 20.8532 11.6492C21.2713 11.851 21.6917 12.0552 22.1096 12.257C22.196 12.3003 22.2848 12.3412 22.3714 12.3844C22.3787 12.3892 22.3859 12.3917 22.393 12.394C22.3955 12.394 22.3955 12.3965 22.3978 12.3965C22.4313 12.4132 22.4531 12.435 22.4554 12.4373C22.4987 12.5021 22.4866 12.5574 22.388 12.6078C22.1597 12.7255 21.9268 12.8311 21.6962 12.9418C21.1604 13.2012 20.6224 13.4608 20.0866 13.7201C19.3227 14.0902 18.5586 14.4577 17.7947 14.8276C16.8794 15.2697 15.9666 15.7116 15.0512 16.1537C14.071 16.6269 13.0933 17.1004 12.1131 17.5736C11.1449 18.042 10.1768 18.5082 9.2086 18.9766C8.327 19.4017 7.44776 19.8271 6.56597 20.2522C5.85967 20.5934 5.15093 20.9345 4.44463 21.278C3.98572 21.4991 3.5293 21.7201 3.07056 21.941C2.96241 21.9938 2.85426 22.0444 2.74631 22.0972C2.72476 22.1067 2.70301 22.1212 2.67898 22.1308C2.60479 22.1552 2.53517 22.1144 2.53021 22.0303C2.51571 21.7228 2.03524 21.7203 2.04975 22.0303C2.06901 22.4747 2.50618 22.7318 2.90727 22.5492C2.92176 22.542 2.93607 22.5348 2.95056 22.53C3.04898 22.4819 3.14988 22.4339 3.24849 22.3858C3.69291 22.172 4.13731 21.9557 4.57945 21.7418C5.28096 21.4031 5.98004 21.0644 6.68155 20.7256C7.55836 20.3028 8.43536 19.8776 9.31217 19.4548C10.2876 18.9839 11.2653 18.5106 12.2407 18.0397C13.2305 17.5618 14.2227 17.0811 15.2124 16.6031C16.1325 16.1587 17.0526 15.7143 17.9727 15.2699C18.7463 14.8976 19.5174 14.5228 20.2909 14.1504C20.8362 13.8863 21.3815 13.6244 21.9268 13.36C22.1599 13.2471 22.3953 13.1414 22.6236 13.0237C23.044 12.8075 23.0465 12.1973 22.6261 11.9787C22.5587 11.9427 22.4891 11.9114 22.4195 11.8778C22.0254 11.688 21.6316 11.4983 21.2375 11.306C20.5745 10.984 19.9091 10.6645 19.2461 10.3426C18.3885 9.92949 17.5308 9.51386 16.6733 9.10053C15.7099 8.63457 14.7467 8.17089 13.7832 7.70473C12.7887 7.22427 11.7941 6.74379 10.8018 6.26332C9.86247 5.80937 8.92082 5.35522 7.98142 4.90112C7.17898 4.51431 6.37907 4.12749 5.57663 3.73842C4.9905 3.45499 4.40666 3.17158 3.82053 2.89042C3.53233 2.751 3.24167 2.61176 2.95324 2.47233C2.93646 2.46509 2.92196 2.45555 2.90518 2.4483C2.55423 2.2877 2.12183 2.47271 2.05948 2.87631C2.03296 3.03958 2.04994 3.21505 2.04994 3.3808V5.99213V9.13676V10.2179C2.04994 10.4052 2.02343 10.631 2.09552 10.8065C2.18689 11.0323 2.3862 11.1477 2.6193 11.174C2.66012 11.1788 2.70342 11.1813 2.74424 11.186C2.93402 11.2053 3.1238 11.2246 3.31357 11.2436C4.03188 11.3157 4.75268 11.3854 5.47099 11.4575C6.47749 11.5584 7.48173 11.6568 8.48842 11.7577C9.58383 11.8658 10.6769 11.9763 11.7725 12.0844C12.7502 12.1805 13.7281 12.279 14.7033 12.3751C15.3591 12.4399 16.0125 12.5048 16.6685 12.5696C16.8149 12.5841 16.9591 12.5984 17.1056 12.6129C17.1201 12.6154 17.1321 12.6154 17.1464 12.6177C17.1489 12.6177 17.1512 12.6202 17.1537 12.6177C17.0768 12.637 16.9952 12.5168 17.0408 12.4472C17.0816 12.3823 17.2185 12.3776 17.0984 12.3896C16.6683 12.4329 16.2384 12.476 15.8082 12.517C14.9602 12.6011 14.1097 12.6852 13.2617 12.7691C12.2024 12.8748 11.1429 12.9805 10.0833 13.0839C9.00701 13.1895 7.93318 13.2977 6.85706 13.4033C5.97303 13.4922 5.08646 13.5786 4.20242 13.6675C3.71243 13.7156 3.22225 13.7659 2.73226 13.814C2.69373 13.8188 2.65539 13.8212 2.61934 13.826C2.35994 13.8548 2.12686 14.0133 2.06924 14.2824C2.03319 14.4507 2.05475 14.6404 2.05475 14.811V17.4223V20.5789V22.03C2.04979 22.3402 2.53021 22.3402 2.53021 22.0303L2.53028 22.0303Z" fill="black"/>
</svg>
